<svg xmlns="http://www.w3.org/2000/svg" viewBox="0 0 512 512">
  <defs>
    <linearGradient id="g" x1="0" y1="0" x2="1" y2="1">
      <stop offset="0" stop-color="#22c55e"/>
      <stop offset="1" stop-color="#16a34a"/>
    </linearGradient>
  </defs>
  <rect width="512" height="512" rx="120" fill="#050505"/>
  <circle cx="256" cy="256" r="154" fill="url(#g)" opacity="0.12"/>
  <path
    d="M320 136c8 0 16 7 16 16v190c0 46-38 78-90 78-48 0-82-26-82-62s34-62 82-62c22 0 44 6 58 16V190l-136 28c-9 2-18-5-18-14v-52c0-7 5-13 12-15l152-33c2 0 4-1 6-1z"
    fill="#e5ffe9"
  />
  <circle cx="230" cy="344" r="34" fill="#e5ffe9"/>
</svg>

